0
SECTION
2
ENTITIES
0
LINE
8
0
10
-12.00
20
-12.00
30
0.0
11
294.00
21
-12.00
31
0.0
0
LINE
8
0
10
294.00
20
-12.00
30
0.0
11
294.00
21
188.00
31
0.0
0
LINE
8
0
10
294.00
20
188.00
30
0.0
11
-12.00
21
188.00
31
0.0
0
LINE
8
0
10
-12.00
20
188.00
30
0.0
11
-12.00
21
-12.00
31
0.0
0
LINE
8
0
10
0.00
20
0.00
30
0.0
11
96.80
21
0.00
31
0.0
0
LINE
8
0
10
173.50
20
0.00
30
0.0
11
282.00
21
0.00
31
0.0
0
LINE
8
0
10
282.00
20
0.00
30
0.0
11
282.00
21
176.00
31
0.0
0
LINE
8
0
10
282.00
20
176.00
30
0.0
11
0.00
21
176.00
31
0.0
0
LINE
8
0
10
0.00
20
176.00
30
0.0
11
0.00
21
0.00
31
0.0
0
LINE
8
0
10
96.80
20
0.00
30
0.0
11
96.80
21
-12.00
31
0.0
0
LINE
8
0
10
173.50
20
0.00
30
0.0
11
173.50
21
-12.00
31
0.0
0
LINE
8
0
10
86.20
20
83.00
30
0.0
11
87.00
21
83.00
31
0.0
0
LINE
8
0
10
87.00
20
83.00
30
0.0
11
87.00
21
176.00
31
0.0
0
LINE
8
0
10
87.00
20
176.00
30
0.0
11
86.20
21
176.00
31
0.0
0
LINE
8
0
10
86.20
20
176.00
30
0.0
11
86.20
21
83.00
31
0.0
0
LINE
8
0
10
0.00
20
83.00
30
0.0
11
40.00
21
83.00
31
0.0
0
LINE
8
0
10
40.00
20
83.00
30
0.0
11
40.00
21
83.80
31
0.0
0
LINE
8
0
10
40.00
20
83.80
30
0.0
11
0.00
21
83.80
31
0.0
0
LINE
8
0
10
0.00
20
83.80
30
0.0
11
0.00
21
83.00
31
0.0
0
LINE
8
0
10
103.00
20
108.00
30
0.0
11
141.00
21
108.00
31
0.0
0
LINE
8
0
10
141.00
20
108.00
30
0.0
11
141.00
21
176.00
31
0.0
0
LINE
8
0
10
141.00
20
176.00
30
0.0
11
103.00
21
176.00
31
0.0
0
LINE
8
0
10
103.00
20
176.00
30
0.0
11
103.00
21
108.00
31
0.0
0
LINE
8
0
10
234.00
20
0.00
30
0.0
11
282.00
21
0.00
31
0.0
0
LINE
8
0
10
282.00
20
0.00
30
0.0
11
282.00
21
89.00
31
0.0
0
LINE
8
0
10
282.00
20
89.00
30
0.0
11
234.00
21
89.00
31
0.0
0
LINE
8
0
10
234.00
20
89.00
30
0.0
11
234.00
21
0.00
31
0.0
0
LINE
8
0
10
240.00
20
25.00
30
0.0
11
276.00
21
25.00
31
0.0
0
LINE
8
0
10
276.00
20
25.00
30
0.0
11
276.00
21
61.00
31
0.0
0
LINE
8
0
10
276.00
20
61.00
30
0.0
11
240.00
21
61.00
31
0.0
0
LINE
8
0
10
240.00
20
61.00
30
0.0
11
240.00
21
25.00
31
0.0
0
ENDSEC
0
EOF
