0
SECTION
2
ENTITIES
0
LINE
8
0
10
-12.00
20
-12.00
30
0.0
11
286.00
21
-12.00
31
0.0
0
LINE
8
0
10
286.00
20
-12.00
30
0.0
11
286.00
21
177.00
31
0.0
0
LINE
8
0
10
286.00
20
177.00
30
0.0
11
-12.00
21
177.00
31
0.0
0
LINE
8
0
10
-12.00
20
177.00
30
0.0
11
-12.00
21
-12.00
31
0.0
0
LINE
8
0
10
0.00
20
0.00
30
0.0
11
90.10
21
0.00
31
0.0
0
LINE
8
0
10
190.10
20
0.00
30
0.0
11
274.00
21
0.00
31
0.0
0
LINE
8
0
10
274.00
20
0.00
30
0.0
11
274.00
21
165.00
31
0.0
0
LINE
8
0
10
274.00
20
165.00
30
0.0
11
0.00
21
165.00
31
0.0
0
LINE
8
0
10
0.00
20
165.00
30
0.0
11
0.00
21
0.00
31
0.0
0
LINE
8
0
10
90.10
20
0.00
30
0.0
11
90.10
21
-12.00
31
0.0
0
LINE
8
0
10
190.10
20
0.00
30
0.0
11
190.10
21
-12.00
31
0.0
0
LINE
8
0
10
26.50
20
97.00
30
0.0
11
64.50
21
97.00
31
0.0
0
LINE
8
0
10
64.50
20
97.00
30
0.0
11
64.50
21
165.00
31
0.0
0
LINE
8
0
10
64.50
20
165.00
30
0.0
11
26.50
21
165.00
31
0.0
0
LINE
8
0
10
26.50
20
165.00
30
0.0
11
26.50
21
97.00
31
0.0
0
LINE
8
0
10
188.60
20
0.00
30
0.0
11
189.40
21
0.00
31
0.0
0
LINE
8
0
10
189.40
20
0.00
30
0.0
11
189.40
21
92.00
31
0.0
0
LINE
8
0
10
189.40
20
92.00
30
0.0
11
188.60
21
92.00
31
0.0
0
LINE
8
0
10
188.60
20
92.00
30
0.0
11
188.60
21
0.00
31
0.0
0
LINE
8
0
10
188.60
20
91.20
30
0.0
11
234.00
21
91.20
31
0.0
0
LINE
8
0
10
234.00
20
91.20
30
0.0
11
234.00
21
92.00
31
0.0
0
LINE
8
0
10
234.00
20
92.00
30
0.0
11
188.60
21
92.00
31
0.0
0
LINE
8
0
10
188.60
20
92.00
30
0.0
11
188.60
21
91.20
31
0.0
0
LINE
8
0
10
127.50
20
10.00
30
0.0
11
172.50
21
10.00
31
0.0
0
LINE
8
0
10
172.50
20
10.00
30
0.0
11
172.50
21
45.00
31
0.0
0
LINE
8
0
10
172.50
20
45.00
30
0.0
11
127.50
21
45.00
31
0.0
0
LINE
8
0
10
127.50
20
45.00
30
0.0
11
127.50
21
10.00
31
0.0
0
LINE
8
0
10
172.50
20
27.50
30
0.0
11
172.07
21
30.91
31
0.0
0
LINE
8
0
10
172.07
20
30.91
30
0.0
11
170.79
21
34.20
31
0.0
0
LINE
8
0
10
170.79
20
34.20
30
0.0
11
168.71
21
37.22
31
0.0
0
LINE
8
0
10
168.71
20
37.22
30
0.0
11
165.91
21
39.87
31
0.0
0
LINE
8
0
10
165.91
20
39.87
30
0.0
11
162.50
21
42.05
31
0.0
0
LINE
8
0
10
162.50
20
42.05
30
0.0
11
158.61
21
43.67
31
0.0
0
LINE
8
0
10
158.61
20
43.67
30
0.0
11
154.39
21
44.66
31
0.0
0
LINE
8
0
10
154.39
20
44.66
30
0.0
11
150.00
21
45.00
31
0.0
0
LINE
8
0
10
150.00
20
45.00
30
0.0
11
145.61
21
44.66
31
0.0
0
LINE
8
0
10
145.61
20
44.66
30
0.0
11
141.39
21
43.67
31
0.0
0
LINE
8
0
10
141.39
20
43.67
30
0.0
11
137.50
21
42.05
31
0.0
0
LINE
8
0
10
137.50
20
42.05
30
0.0
11
134.09
21
39.87
31
0.0
0
LINE
8
0
10
134.09
20
39.87
30
0.0
11
131.29
21
37.22
31
0.0
0
LINE
8
0
10
131.29
20
37.22
30
0.0
11
129.21
21
34.20
31
0.0
0
LINE
8
0
10
129.21
20
34.20
30
0.0
11
127.93
21
30.91
31
0.0
0
LINE
8
0
10
127.93
20
30.91
30
0.0
11
127.50
21
27.50
31
0.0
0
LINE
8
0
10
127.50
20
27.50
30
0.0
11
127.93
21
24.09
31
0.0
0
LINE
8
0
10
127.93
20
24.09
30
0.0
11
129.21
21
20.80
31
0.0
0
LINE
8
0
10
129.21
20
20.80
30
0.0
11
131.29
21
17.78
31
0.0
0
LINE
8
0
10
131.29
20
17.78
30
0.0
11
134.09
21
15.13
31
0.0
0
LINE
8
0
10
134.09
20
15.13
30
0.0
11
137.50
21
12.95
31
0.0
0
LINE
8
0
10
137.50
20
12.95
30
0.0
11
141.39
21
11.33
31
0.0
0
LINE
8
0
10
141.39
20
11.33
30
0.0
11
145.61
21
10.34
31
0.0
0
LINE
8
0
10
145.61
20
10.34
30
0.0
11
150.00
21
10.00
31
0.0
0
LINE
8
0
10
150.00
20
10.00
30
0.0
11
154.39
21
10.34
31
0.0
0
LINE
8
0
10
154.39
20
10.34
30
0.0
11
158.61
21
11.33
31
0.0
0
LINE
8
0
10
158.61
20
11.33
30
0.0
11
162.50
21
12.95
31
0.0
0
LINE
8
0
10
162.50
20
12.95
30
0.0
11
165.91
21
15.13
31
0.0
0
LINE
8
0
10
165.91
20
15.13
30
0.0
11
168.71
21
17.78
31
0.0
0
LINE
8
0
10
168.71
20
17.78
30
0.0
11
170.79
21
20.80
31
0.0
0
LINE
8
0
10
170.79
20
20.80
30
0.0
11
172.07
21
24.09
31
0.0
0
LINE
8
0
10
172.07
20
24.09
30
0.0
11
172.50
21
27.50
31
0.0
0
ENDSEC
0
EOF
